<mxfile host="app.diagrams.net" agent="Mozilla/5.0 (Macintosh; Intel Mac OS X 10_15_7) AppleWebKit/605.1.15 (KHTML, like Gecko) Version/17.0 Safari/605.1.15" version="27.0.1" pages="2">
  <diagram name="Страница — 1" id="2JjP7Pa0rujz-EyegafC">
    <mxGraphModel dx="2725" dy="1222" grid="1" gridSize="10" guides="1" tooltips="1" connect="1" arrows="1" fold="1" page="1" pageScale="1" pageWidth="827" pageHeight="1169" math="0" shadow="0">
      <root>
        <mxCell id="0" />
        <mxCell id="1" parent="0" />
        <mxCell id="96zn_LZhvRboqHvBQPjA-2" value="&lt;font style=&quot;font-size: 24px;&quot;&gt;Result&lt;/font&gt;" style="text;html=1;align=center;verticalAlign=middle;whiteSpace=wrap;rounded=0;shadow=1;" parent="1" vertex="1">
          <mxGeometry x="20" y="50" width="60" height="30" as="geometry" />
        </mxCell>
        <mxCell id="96zn_LZhvRboqHvBQPjA-3" value="&lt;font style=&quot;font-size: 24px;&quot;&gt;π&lt;/font&gt;&lt;font style=&quot;font-size: 12px;&quot;&gt;(н_типы_ведомостей.ид, н_ведомости.члвк_ид&lt;/font&gt;)" style="text;html=1;align=center;verticalAlign=middle;whiteSpace=wrap;rounded=0;" parent="1" vertex="1">
          <mxGeometry x="-60" y="100" width="220" height="40" as="geometry" />
        </mxCell>
        <mxCell id="96zn_LZhvRboqHvBQPjA-4" value="&lt;font face=&quot;Helvetica&quot; style=&quot;&quot;&gt;&lt;font style=&quot;font-size: 24px;&quot;&gt;σ&lt;/font&gt;&lt;font style=&quot;font-size: 12px;&quot;&gt;&lt;font style=&quot;&quot;&gt;(н_ведомости.ид=1426978&lt;/font&gt;&lt;/font&gt;&lt;/font&gt;&lt;span style=&quot;background-color: transparent; color: light-dark(rgb(0, 0, 0), rgb(255, 255, 255));&quot;&gt;)&lt;/span&gt;" style="text;html=1;align=center;verticalAlign=middle;whiteSpace=wrap;rounded=0;" parent="1" vertex="1">
          <mxGeometry x="-65" y="160" width="230" height="50" as="geometry" />
        </mxCell>
        <mxCell id="96zn_LZhvRboqHvBQPjA-8" value="&lt;font face=&quot;Helvetica&quot; style=&quot;&quot;&gt;&lt;font style=&quot;font-size: 24px;&quot;&gt;σ&lt;/font&gt;&lt;font style=&quot;font-size: 12px;&quot;&gt;&lt;font style=&quot;&quot;&gt;(н_типы_ведомостей.ид&amp;gt;2&lt;/font&gt;&lt;/font&gt;&lt;/font&gt;&lt;span style=&quot;background-color: initial;&quot;&gt;)&lt;/span&gt;" style="text;html=1;align=center;verticalAlign=middle;whiteSpace=wrap;rounded=0;" parent="1" vertex="1">
          <mxGeometry x="-65" y="240" width="230" height="50" as="geometry" />
        </mxCell>
        <mxCell id="96zn_LZhvRboqHvBQPjA-9" value="&lt;span style=&quot;color: rgb(0, 0, 0); font-style: normal; font-variant-ligatures: normal; font-variant-caps: normal; font-weight: 400; letter-spacing: normal; orphans: 2; text-align: left; text-indent: 0px; text-transform: none; widows: 2; word-spacing: 0px; -webkit-text-stroke-width: 0px; white-space: normal; background-color: rgb(255, 255, 255); text-decoration-thickness: initial; text-decoration-style: initial; text-decoration-color: initial; float: none; display: inline !important;&quot;&gt;&lt;font style=&quot;font-size: 24px;&quot; face=&quot;Helvetica&quot;&gt;⋈&lt;/font&gt;&lt;font style=&quot;font-size: 12px;&quot; face=&quot;Helvetica&quot;&gt;(н_ведомости.тв_ид =н_типы_ведомостей.ид)&lt;/font&gt;&lt;/span&gt;" style="text;html=1;align=center;verticalAlign=middle;whiteSpace=wrap;rounded=0;" parent="1" vertex="1">
          <mxGeometry x="-110" y="310" width="320" height="60" as="geometry" />
        </mxCell>
        <mxCell id="96zn_LZhvRboqHvBQPjA-10" value="Н_ТИПЫ_ВЕДОМОСТЕЙ" style="text;html=1;align=center;verticalAlign=middle;whiteSpace=wrap;rounded=0;" parent="1" vertex="1">
          <mxGeometry x="80" y="400" width="156" height="40" as="geometry" />
        </mxCell>
        <mxCell id="96zn_LZhvRboqHvBQPjA-11" value="Н_ВЕДОМОСТИ" style="text;html=1;align=center;verticalAlign=middle;whiteSpace=wrap;rounded=0;" parent="1" vertex="1">
          <mxGeometry x="-140" y="400" width="160" height="40" as="geometry" />
        </mxCell>
        <mxCell id="96zn_LZhvRboqHvBQPjA-12" value="" style="endArrow=none;html=1;rounded=0;exitX=0.5;exitY=0;exitDx=0;exitDy=0;entryX=0.25;entryY=1;entryDx=0;entryDy=0;" parent="1" source="96zn_LZhvRboqHvBQPjA-11" target="96zn_LZhvRboqHvBQPjA-9" edge="1">
          <mxGeometry width="50" height="50" relative="1" as="geometry">
            <mxPoint x="-60" y="400" as="sourcePoint" />
            <mxPoint x="270" y="370" as="targetPoint" />
          </mxGeometry>
        </mxCell>
        <mxCell id="96zn_LZhvRboqHvBQPjA-13" value="" style="endArrow=none;html=1;rounded=0;exitX=0.5;exitY=0;exitDx=0;exitDy=0;entryX=0.75;entryY=1;entryDx=0;entryDy=0;" parent="1" source="96zn_LZhvRboqHvBQPjA-10" target="96zn_LZhvRboqHvBQPjA-9" edge="1">
          <mxGeometry width="50" height="50" relative="1" as="geometry">
            <mxPoint x="-50" y="410" as="sourcePoint" />
            <mxPoint x="-20" y="380" as="targetPoint" />
          </mxGeometry>
        </mxCell>
        <mxCell id="96zn_LZhvRboqHvBQPjA-14" value="" style="endArrow=none;html=1;rounded=0;exitX=0.5;exitY=0;exitDx=0;exitDy=0;" parent="1" source="96zn_LZhvRboqHvBQPjA-9" target="96zn_LZhvRboqHvBQPjA-8" edge="1">
          <mxGeometry width="50" height="50" relative="1" as="geometry">
            <mxPoint x="220" y="420" as="sourcePoint" />
            <mxPoint x="270" y="370" as="targetPoint" />
          </mxGeometry>
        </mxCell>
        <mxCell id="96zn_LZhvRboqHvBQPjA-15" value="" style="endArrow=none;html=1;rounded=0;exitX=0.5;exitY=0;exitDx=0;exitDy=0;entryX=0.5;entryY=1;entryDx=0;entryDy=0;" parent="1" source="96zn_LZhvRboqHvBQPjA-8" target="96zn_LZhvRboqHvBQPjA-4" edge="1">
          <mxGeometry width="50" height="50" relative="1" as="geometry">
            <mxPoint x="-40" y="420" as="sourcePoint" />
            <mxPoint x="-10" y="390" as="targetPoint" />
          </mxGeometry>
        </mxCell>
        <mxCell id="96zn_LZhvRboqHvBQPjA-16" value="" style="endArrow=none;html=1;rounded=0;exitX=0.5;exitY=1;exitDx=0;exitDy=0;entryX=0.5;entryY=0;entryDx=0;entryDy=0;" parent="1" source="96zn_LZhvRboqHvBQPjA-3" target="96zn_LZhvRboqHvBQPjA-4" edge="1">
          <mxGeometry width="50" height="50" relative="1" as="geometry">
            <mxPoint x="-30" y="430" as="sourcePoint" />
            <mxPoint y="400" as="targetPoint" />
          </mxGeometry>
        </mxCell>
        <mxCell id="96zn_LZhvRboqHvBQPjA-17" value="" style="endArrow=none;html=1;rounded=0;exitX=0.5;exitY=1;exitDx=0;exitDy=0;entryX=0.5;entryY=0;entryDx=0;entryDy=0;" parent="1" source="96zn_LZhvRboqHvBQPjA-2" target="96zn_LZhvRboqHvBQPjA-3" edge="1">
          <mxGeometry width="50" height="50" relative="1" as="geometry">
            <mxPoint x="-20" y="440" as="sourcePoint" />
            <mxPoint x="10" y="410" as="targetPoint" />
          </mxGeometry>
        </mxCell>
        <mxCell id="96zn_LZhvRboqHvBQPjA-21" value="&lt;font style=&quot;font-size: 24px;&quot;&gt;Result&lt;/font&gt;" style="text;html=1;align=center;verticalAlign=middle;whiteSpace=wrap;rounded=0;shadow=1;" parent="1" vertex="1">
          <mxGeometry x="404" y="50" width="60" height="30" as="geometry" />
        </mxCell>
        <mxCell id="96zn_LZhvRboqHvBQPjA-22" value="&lt;font style=&quot;font-size: 24px;&quot;&gt;π&lt;/font&gt;(н_типы_ведомостей.ид, н_ведомости.члвк_ид)" style="text;html=1;align=center;verticalAlign=middle;whiteSpace=wrap;rounded=0;" parent="1" vertex="1">
          <mxGeometry x="324" y="100" width="220" height="40" as="geometry" />
        </mxCell>
        <mxCell id="96zn_LZhvRboqHvBQPjA-23" value="&lt;font face=&quot;Helvetica&quot; style=&quot;&quot;&gt;&lt;font style=&quot;font-size: 24px;&quot;&gt;σ&lt;/font&gt;&lt;font style=&quot;font-size: 12px;&quot;&gt;&lt;font style=&quot;&quot;&gt;(&lt;/font&gt;&lt;/font&gt;&lt;/font&gt;н_ведомости.ид=1426978&lt;span style=&quot;background-color: transparent; color: light-dark(rgb(0, 0, 0), rgb(255, 255, 255));&quot;&gt;)&lt;/span&gt;" style="text;html=1;align=center;verticalAlign=middle;whiteSpace=wrap;rounded=0;" parent="1" vertex="1">
          <mxGeometry x="210" y="240" width="230" height="50" as="geometry" />
        </mxCell>
        <mxCell id="96zn_LZhvRboqHvBQPjA-24" value="&lt;font face=&quot;Helvetica&quot; style=&quot;&quot;&gt;&lt;font style=&quot;font-size: 24px;&quot;&gt;σ&lt;/font&gt;&lt;font style=&quot;font-size: 12px;&quot;&gt;&lt;font style=&quot;&quot;&gt;(&lt;/font&gt;&lt;/font&gt;&lt;/font&gt;н_типы_ведомостей.ид&amp;gt;2&lt;span style=&quot;background-color: initial;&quot;&gt;)&lt;/span&gt;" style="text;html=1;align=center;verticalAlign=middle;whiteSpace=wrap;rounded=0;" parent="1" vertex="1">
          <mxGeometry x="450" y="240" width="230" height="50" as="geometry" />
        </mxCell>
        <mxCell id="96zn_LZhvRboqHvBQPjA-25" value="&lt;span style=&quot;color: rgb(0, 0, 0); font-style: normal; font-variant-ligatures: normal; font-variant-caps: normal; font-weight: 400; letter-spacing: normal; orphans: 2; text-align: left; text-indent: 0px; text-transform: none; widows: 2; word-spacing: 0px; -webkit-text-stroke-width: 0px; white-space: normal; background-color: rgb(255, 255, 255); text-decoration-thickness: initial; text-decoration-style: initial; text-decoration-color: initial; float: none; display: inline !important;&quot;&gt;&lt;font style=&quot;font-size: 24px;&quot; face=&quot;Helvetica&quot;&gt;⋈&lt;/font&gt;&lt;font style=&quot;font-size: 12px;&quot; face=&quot;Helvetica&quot;&gt;(&lt;/font&gt;н_ведомости.тв_ид =н_типы_ведомостей.ид&lt;font style=&quot;font-size: 12px;&quot; face=&quot;Helvetica&quot;&gt;)&lt;/font&gt;&lt;/span&gt;" style="text;html=1;align=center;verticalAlign=middle;whiteSpace=wrap;rounded=0;" parent="1" vertex="1">
          <mxGeometry x="274" y="170" width="320" height="45" as="geometry" />
        </mxCell>
        <mxCell id="96zn_LZhvRboqHvBQPjA-26" value="Н_ТИПЫ_ВЕДОМОСТЕЙ" style="text;html=1;align=center;verticalAlign=middle;whiteSpace=wrap;rounded=0;" parent="1" vertex="1">
          <mxGeometry x="510" y="320" width="110" height="40" as="geometry" />
        </mxCell>
        <mxCell id="96zn_LZhvRboqHvBQPjA-27" value="Н_ВЕДОМОСТИ" style="text;html=1;align=center;verticalAlign=middle;whiteSpace=wrap;rounded=0;" parent="1" vertex="1">
          <mxGeometry x="244" y="320" width="160" height="40" as="geometry" />
        </mxCell>
        <mxCell id="96zn_LZhvRboqHvBQPjA-33" value="" style="endArrow=none;html=1;rounded=0;exitX=0.5;exitY=1;exitDx=0;exitDy=0;entryX=0.5;entryY=0;entryDx=0;entryDy=0;" parent="1" source="96zn_LZhvRboqHvBQPjA-21" target="96zn_LZhvRboqHvBQPjA-22" edge="1">
          <mxGeometry width="50" height="50" relative="1" as="geometry">
            <mxPoint x="364" y="440" as="sourcePoint" />
            <mxPoint x="394" y="410" as="targetPoint" />
          </mxGeometry>
        </mxCell>
        <mxCell id="96zn_LZhvRboqHvBQPjA-34" value="" style="endArrow=none;html=1;rounded=0;exitX=0.5;exitY=0;exitDx=0;exitDy=0;entryX=0.5;entryY=1;entryDx=0;entryDy=0;" parent="1" source="96zn_LZhvRboqHvBQPjA-27" target="96zn_LZhvRboqHvBQPjA-23" edge="1">
          <mxGeometry width="50" height="50" relative="1" as="geometry">
            <mxPoint x="-50" y="410" as="sourcePoint" />
            <mxPoint x="-20" y="380" as="targetPoint" />
          </mxGeometry>
        </mxCell>
        <mxCell id="96zn_LZhvRboqHvBQPjA-35" value="" style="endArrow=none;html=1;rounded=0;exitX=0.5;exitY=0;exitDx=0;exitDy=0;entryX=0.5;entryY=1;entryDx=0;entryDy=0;" parent="1" source="96zn_LZhvRboqHvBQPjA-26" edge="1">
          <mxGeometry width="50" height="50" relative="1" as="geometry">
            <mxPoint x="345" y="330" as="sourcePoint" />
            <mxPoint x="565" y="290" as="targetPoint" />
          </mxGeometry>
        </mxCell>
        <mxCell id="96zn_LZhvRboqHvBQPjA-36" value="" style="endArrow=none;html=1;rounded=0;exitX=0.5;exitY=0;exitDx=0;exitDy=0;entryX=0.25;entryY=1;entryDx=0;entryDy=0;" parent="1" source="96zn_LZhvRboqHvBQPjA-23" target="96zn_LZhvRboqHvBQPjA-25" edge="1">
          <mxGeometry width="50" height="50" relative="1" as="geometry">
            <mxPoint x="355" y="340" as="sourcePoint" />
            <mxPoint x="355" y="310" as="targetPoint" />
          </mxGeometry>
        </mxCell>
        <mxCell id="96zn_LZhvRboqHvBQPjA-37" value="" style="endArrow=none;html=1;rounded=0;exitX=0.5;exitY=0;exitDx=0;exitDy=0;entryX=0.75;entryY=1;entryDx=0;entryDy=0;" parent="1" source="96zn_LZhvRboqHvBQPjA-24" target="96zn_LZhvRboqHvBQPjA-25" edge="1">
          <mxGeometry width="50" height="50" relative="1" as="geometry">
            <mxPoint x="565" y="240" as="sourcePoint" />
            <mxPoint x="365" y="320" as="targetPoint" />
          </mxGeometry>
        </mxCell>
        <mxCell id="96zn_LZhvRboqHvBQPjA-38" value="" style="endArrow=none;html=1;rounded=0;entryX=0.5;entryY=1;entryDx=0;entryDy=0;" parent="1" source="96zn_LZhvRboqHvBQPjA-25" target="96zn_LZhvRboqHvBQPjA-22" edge="1">
          <mxGeometry width="50" height="50" relative="1" as="geometry">
            <mxPoint x="375" y="360" as="sourcePoint" />
            <mxPoint x="375" y="330" as="targetPoint" />
          </mxGeometry>
        </mxCell>
        <mxCell id="K8DJrwSRKDagzmZcBtCX-1" value="&lt;font style=&quot;font-size: 24px;&quot;&gt;Result&lt;/font&gt;" style="text;html=1;align=center;verticalAlign=middle;whiteSpace=wrap;rounded=0;shadow=1;" parent="1" vertex="1">
          <mxGeometry x="1030" y="60" width="60" height="30" as="geometry" />
        </mxCell>
        <mxCell id="K8DJrwSRKDagzmZcBtCX-2" value="&lt;font style=&quot;font-size: 24px;&quot;&gt;π&lt;/font&gt;&lt;font style=&quot;font-size: 12px;&quot;&gt;(н_люди.имя,&lt;/font&gt;&lt;div&gt;&lt;font style=&quot;font-size: 12px;&quot;&gt;н_обучения.нзк,н_ученики.начало)&lt;/font&gt;&lt;/div&gt;" style="text;html=1;align=center;verticalAlign=middle;whiteSpace=wrap;rounded=0;" parent="1" vertex="1">
          <mxGeometry x="950" y="110" width="220" height="40" as="geometry" />
        </mxCell>
        <mxCell id="K8DJrwSRKDagzmZcBtCX-3" value="&lt;font face=&quot;Helvetica&quot; style=&quot;&quot;&gt;&lt;font style=&quot;font-size: 24px;&quot;&gt;σ&lt;/font&gt;&lt;font style=&quot;font-size: 12px;&quot;&gt;&lt;font style=&quot;&quot;&gt;(н_ученики.начало = 1996-09-01&lt;/font&gt;&lt;/font&gt;&lt;/font&gt;&lt;span style=&quot;background-color: transparent; color: light-dark(rgb(0, 0, 0), rgb(255, 255, 255));&quot;&gt;)&lt;/span&gt;" style="text;html=1;align=center;verticalAlign=middle;whiteSpace=wrap;rounded=0;" parent="1" vertex="1">
          <mxGeometry x="945" y="170" width="230" height="50" as="geometry" />
        </mxCell>
        <mxCell id="K8DJrwSRKDagzmZcBtCX-4" value="&lt;font face=&quot;Helvetica&quot; style=&quot;&quot;&gt;&lt;font style=&quot;font-size: 24px;&quot;&gt;σ&lt;/font&gt;&lt;font style=&quot;font-size: 12px;&quot;&gt;&lt;font style=&quot;&quot;&gt;(н_обучения.члвк_ид = 105590&lt;/font&gt;&lt;/font&gt;&lt;/font&gt;&lt;span style=&quot;background-color: initial;&quot;&gt;)&lt;/span&gt;" style="text;html=1;align=center;verticalAlign=middle;whiteSpace=wrap;rounded=0;" parent="1" vertex="1">
          <mxGeometry x="945" y="250" width="230" height="50" as="geometry" />
        </mxCell>
        <mxCell id="K8DJrwSRKDagzmZcBtCX-5" value="&lt;span style=&quot;color: rgb(0, 0, 0); font-style: normal; font-variant-ligatures: normal; font-variant-caps: normal; font-weight: 400; letter-spacing: normal; orphans: 2; text-align: left; text-indent: 0px; text-transform: none; widows: 2; word-spacing: 0px; -webkit-text-stroke-width: 0px; white-space: normal; background-color: rgb(255, 255, 255); text-decoration-thickness: initial; text-decoration-style: initial; text-decoration-color: initial; float: none; display: inline !important;&quot;&gt;&lt;font style=&quot;font-size: 24px;&quot; face=&quot;Helvetica&quot;&gt;⋈&lt;/font&gt;&lt;font style=&quot;font-size: 12px;&quot; face=&quot;Helvetica&quot;&gt;(н_ученики.члвк_ид=н_обучения.члвк_ид)&lt;/font&gt;&lt;/span&gt;" style="text;html=1;align=center;verticalAlign=middle;whiteSpace=wrap;rounded=0;" parent="1" vertex="1">
          <mxGeometry x="690" y="590" width="320" height="60" as="geometry" />
        </mxCell>
        <mxCell id="K8DJrwSRKDagzmZcBtCX-6" value="Н_ОБУЧЕНИЯ" style="text;html=1;align=center;verticalAlign=middle;whiteSpace=wrap;rounded=0;" parent="1" vertex="1">
          <mxGeometry x="910" y="680" width="110" height="40" as="geometry" />
        </mxCell>
        <mxCell id="K8DJrwSRKDagzmZcBtCX-7" value="Н_УЧЕНИКИ" style="text;html=1;align=center;verticalAlign=middle;whiteSpace=wrap;rounded=0;" parent="1" vertex="1">
          <mxGeometry x="660" y="680" width="160" height="40" as="geometry" />
        </mxCell>
        <mxCell id="K8DJrwSRKDagzmZcBtCX-8" value="" style="endArrow=none;html=1;rounded=0;exitX=0.5;exitY=0;exitDx=0;exitDy=0;entryX=0.25;entryY=1;entryDx=0;entryDy=0;" parent="1" source="K8DJrwSRKDagzmZcBtCX-7" target="K8DJrwSRKDagzmZcBtCX-5" edge="1">
          <mxGeometry width="50" height="50" relative="1" as="geometry">
            <mxPoint x="1020" y="590" as="sourcePoint" />
            <mxPoint x="1070" y="540" as="targetPoint" />
          </mxGeometry>
        </mxCell>
        <mxCell id="K8DJrwSRKDagzmZcBtCX-9" value="" style="endArrow=none;html=1;rounded=0;exitX=0.5;exitY=0;exitDx=0;exitDy=0;entryX=0.75;entryY=1;entryDx=0;entryDy=0;" parent="1" source="K8DJrwSRKDagzmZcBtCX-6" target="K8DJrwSRKDagzmZcBtCX-5" edge="1">
          <mxGeometry width="50" height="50" relative="1" as="geometry">
            <mxPoint x="750" y="580" as="sourcePoint" />
            <mxPoint x="780" y="550" as="targetPoint" />
          </mxGeometry>
        </mxCell>
        <mxCell id="K8DJrwSRKDagzmZcBtCX-10" value="" style="endArrow=none;html=1;rounded=0;" parent="1" target="K8DJrwSRKDagzmZcBtCX-4" edge="1">
          <mxGeometry width="50" height="50" relative="1" as="geometry">
            <mxPoint x="1060" y="340" as="sourcePoint" />
            <mxPoint x="1280" y="380" as="targetPoint" />
          </mxGeometry>
        </mxCell>
        <mxCell id="K8DJrwSRKDagzmZcBtCX-11" value="" style="endArrow=none;html=1;rounded=0;exitX=0.5;exitY=0;exitDx=0;exitDy=0;entryX=0.5;entryY=1;entryDx=0;entryDy=0;" parent="1" source="K8DJrwSRKDagzmZcBtCX-4" target="K8DJrwSRKDagzmZcBtCX-3" edge="1">
          <mxGeometry width="50" height="50" relative="1" as="geometry">
            <mxPoint x="970" y="430" as="sourcePoint" />
            <mxPoint x="1000" y="400" as="targetPoint" />
          </mxGeometry>
        </mxCell>
        <mxCell id="K8DJrwSRKDagzmZcBtCX-12" value="" style="endArrow=none;html=1;rounded=0;exitX=0.5;exitY=1;exitDx=0;exitDy=0;entryX=0.5;entryY=0;entryDx=0;entryDy=0;" parent="1" source="K8DJrwSRKDagzmZcBtCX-2" target="K8DJrwSRKDagzmZcBtCX-3" edge="1">
          <mxGeometry width="50" height="50" relative="1" as="geometry">
            <mxPoint x="980" y="440" as="sourcePoint" />
            <mxPoint x="1010" y="410" as="targetPoint" />
          </mxGeometry>
        </mxCell>
        <mxCell id="K8DJrwSRKDagzmZcBtCX-13" value="" style="endArrow=none;html=1;rounded=0;exitX=0.5;exitY=1;exitDx=0;exitDy=0;entryX=0.5;entryY=0;entryDx=0;entryDy=0;" parent="1" source="K8DJrwSRKDagzmZcBtCX-1" target="K8DJrwSRKDagzmZcBtCX-2" edge="1">
          <mxGeometry width="50" height="50" relative="1" as="geometry">
            <mxPoint x="990" y="450" as="sourcePoint" />
            <mxPoint x="1020" y="420" as="targetPoint" />
          </mxGeometry>
        </mxCell>
        <mxCell id="K8DJrwSRKDagzmZcBtCX-14" value="&lt;font style=&quot;font-size: 24px;&quot;&gt;Result&lt;/font&gt;" style="text;html=1;align=center;verticalAlign=middle;whiteSpace=wrap;rounded=0;shadow=1;" parent="1" vertex="1">
          <mxGeometry x="1800" y="90" width="60" height="30" as="geometry" />
        </mxCell>
        <mxCell id="K8DJrwSRKDagzmZcBtCX-21" value="" style="endArrow=none;html=1;rounded=0;exitX=0.5;exitY=1;exitDx=0;exitDy=0;entryX=0.5;entryY=0;entryDx=0;entryDy=0;" parent="1" source="K8DJrwSRKDagzmZcBtCX-14" target="9OCpa6pSPPRvGiKED115-7" edge="1">
          <mxGeometry width="50" height="50" relative="1" as="geometry">
            <mxPoint x="1500" y="450" as="sourcePoint" />
            <mxPoint x="1570" y="110" as="targetPoint" />
          </mxGeometry>
        </mxCell>
        <mxCell id="K8DJrwSRKDagzmZcBtCX-30" style="edgeStyle=orthogonalEdgeStyle;rounded=0;orthogonalLoop=1;jettySize=auto;html=1;endArrow=none;startFill=0;entryX=0.5;entryY=0;entryDx=0;entryDy=0;" parent="1" source="K8DJrwSRKDagzmZcBtCX-27" target="9OCpa6pSPPRvGiKED115-2" edge="1">
          <mxGeometry relative="1" as="geometry" />
        </mxCell>
        <mxCell id="K8DJrwSRKDagzmZcBtCX-27" value="&lt;font face=&quot;Helvetica&quot; style=&quot;&quot;&gt;&lt;font style=&quot;font-size: 24px;&quot;&gt;σ&lt;/font&gt;&lt;font style=&quot;font-size: 12px;&quot;&gt;&lt;font style=&quot;&quot;&gt;(н_люди.фамилия &amp;gt; &#39;Афанасьев&#39;)&lt;/font&gt;&lt;/font&gt;&lt;/font&gt;" style="text;html=1;align=center;verticalAlign=middle;whiteSpace=wrap;rounded=0;" parent="1" vertex="1">
          <mxGeometry x="945" y="340" width="230" height="50" as="geometry" />
        </mxCell>
        <mxCell id="K8DJrwSRKDagzmZcBtCX-31" style="edgeStyle=orthogonalEdgeStyle;rounded=0;orthogonalLoop=1;jettySize=auto;html=1;exitX=0.5;exitY=1;exitDx=0;exitDy=0;" parent="1" edge="1">
          <mxGeometry relative="1" as="geometry">
            <mxPoint x="1855" y="385" as="sourcePoint" />
            <mxPoint x="1855" y="385" as="targetPoint" />
          </mxGeometry>
        </mxCell>
        <mxCell id="9OCpa6pSPPRvGiKED115-2" value="&lt;span style=&quot;color: rgb(0, 0, 0); font-style: normal; font-variant-ligatures: normal; font-variant-caps: normal; font-weight: 400; letter-spacing: normal; orphans: 2; text-align: left; text-indent: 0px; text-transform: none; widows: 2; word-spacing: 0px; -webkit-text-stroke-width: 0px; white-space: normal; background-color: rgb(255, 255, 255); text-decoration-thickness: initial; text-decoration-style: initial; text-decoration-color: initial; float: none; display: inline !important;&quot;&gt;&lt;font style=&quot;font-size: 24px;&quot; face=&quot;Helvetica&quot;&gt;⋈&lt;/font&gt;&lt;font style=&quot;font-size: 12px;&quot; face=&quot;Helvetica&quot;&gt;(н_обучения.члвк_ид=н_люди.ид)&lt;/font&gt;&lt;/span&gt;" style="text;html=1;align=center;verticalAlign=middle;whiteSpace=wrap;rounded=0;" vertex="1" parent="1">
          <mxGeometry x="900" y="460" width="320" height="60" as="geometry" />
        </mxCell>
        <mxCell id="9OCpa6pSPPRvGiKED115-3" style="edgeStyle=orthogonalEdgeStyle;rounded=0;orthogonalLoop=1;jettySize=auto;html=1;endArrow=none;startFill=0;entryX=0.5;entryY=0;entryDx=0;entryDy=0;exitX=0.25;exitY=1;exitDx=0;exitDy=0;" edge="1" parent="1" source="9OCpa6pSPPRvGiKED115-2" target="K8DJrwSRKDagzmZcBtCX-5">
          <mxGeometry relative="1" as="geometry">
            <mxPoint x="804.5" y="430" as="sourcePoint" />
            <mxPoint x="874.5" y="500" as="targetPoint" />
          </mxGeometry>
        </mxCell>
        <mxCell id="9OCpa6pSPPRvGiKED115-4" value="Н_ЛЮДИ" style="text;html=1;align=center;verticalAlign=middle;whiteSpace=wrap;rounded=0;" vertex="1" parent="1">
          <mxGeometry x="1160" y="600" width="110" height="40" as="geometry" />
        </mxCell>
        <mxCell id="9OCpa6pSPPRvGiKED115-5" style="edgeStyle=orthogonalEdgeStyle;rounded=0;orthogonalLoop=1;jettySize=auto;html=1;endArrow=none;startFill=0;entryX=0.5;entryY=0;entryDx=0;entryDy=0;exitX=0.75;exitY=1;exitDx=0;exitDy=0;" edge="1" parent="1" source="9OCpa6pSPPRvGiKED115-2" target="9OCpa6pSPPRvGiKED115-4">
          <mxGeometry relative="1" as="geometry">
            <mxPoint x="1440" y="530" as="sourcePoint" />
            <mxPoint x="1230" y="600" as="targetPoint" />
          </mxGeometry>
        </mxCell>
        <mxCell id="9OCpa6pSPPRvGiKED115-28" style="edgeStyle=orthogonalEdgeStyle;rounded=0;orthogonalLoop=1;jettySize=auto;html=1;exitX=0.5;exitY=1;exitDx=0;exitDy=0;entryX=0.5;entryY=0;entryDx=0;entryDy=0;endArrow=none;startFill=0;" edge="1" parent="1" source="9OCpa6pSPPRvGiKED115-7" target="9OCpa6pSPPRvGiKED115-25">
          <mxGeometry relative="1" as="geometry" />
        </mxCell>
        <mxCell id="9OCpa6pSPPRvGiKED115-7" value="&lt;font style=&quot;font-size: 24px;&quot;&gt;π&lt;/font&gt;&lt;font style=&quot;font-size: 12px;&quot;&gt;(н_люди.имя,&lt;/font&gt;&lt;div&gt;&lt;font style=&quot;font-size: 12px;&quot;&gt;н_обучения.нзк,н_ученики.начало)&lt;/font&gt;&lt;/div&gt;" style="text;html=1;align=center;verticalAlign=middle;whiteSpace=wrap;rounded=0;" vertex="1" parent="1">
          <mxGeometry x="1720" y="140" width="220" height="40" as="geometry" />
        </mxCell>
        <mxCell id="9OCpa6pSPPRvGiKED115-10" value="Н_УЧЕНИКИ" style="text;html=1;align=center;verticalAlign=middle;whiteSpace=wrap;rounded=0;" vertex="1" parent="1">
          <mxGeometry x="1385" y="570" width="160" height="40" as="geometry" />
        </mxCell>
        <mxCell id="9OCpa6pSPPRvGiKED115-11" value="&lt;font face=&quot;Helvetica&quot; style=&quot;&quot;&gt;&lt;font style=&quot;font-size: 24px;&quot;&gt;σ&lt;/font&gt;&lt;font style=&quot;font-size: 12px;&quot;&gt;&lt;font style=&quot;&quot;&gt;(н_ученики.начало = 1996-09-01&lt;/font&gt;&lt;/font&gt;&lt;/font&gt;&lt;span style=&quot;background-color: transparent; color: light-dark(rgb(0, 0, 0), rgb(255, 255, 255));&quot;&gt;)&lt;/span&gt;" style="text;html=1;align=center;verticalAlign=middle;whiteSpace=wrap;rounded=0;" vertex="1" parent="1">
          <mxGeometry x="1350" y="440" width="230" height="50" as="geometry" />
        </mxCell>
        <mxCell id="9OCpa6pSPPRvGiKED115-13" style="edgeStyle=orthogonalEdgeStyle;rounded=0;orthogonalLoop=1;jettySize=auto;html=1;endArrow=none;startFill=0;entryX=0.5;entryY=0;entryDx=0;entryDy=0;exitX=0.5;exitY=1;exitDx=0;exitDy=0;" edge="1" parent="1" source="9OCpa6pSPPRvGiKED115-11" target="9OCpa6pSPPRvGiKED115-10">
          <mxGeometry relative="1" as="geometry">
            <mxPoint x="1464.5" y="490" as="sourcePoint" />
            <mxPoint x="1464.5" y="560" as="targetPoint" />
          </mxGeometry>
        </mxCell>
        <mxCell id="9OCpa6pSPPRvGiKED115-14" value="Н_ОБУЧЕНИЯ" style="text;html=1;align=center;verticalAlign=middle;whiteSpace=wrap;rounded=0;" vertex="1" parent="1">
          <mxGeometry x="1730" y="570" width="110" height="40" as="geometry" />
        </mxCell>
        <mxCell id="9OCpa6pSPPRvGiKED115-15" value="&lt;font face=&quot;Helvetica&quot; style=&quot;&quot;&gt;&lt;font style=&quot;font-size: 24px;&quot;&gt;σ&lt;/font&gt;&lt;font style=&quot;font-size: 12px;&quot;&gt;&lt;font style=&quot;&quot;&gt;(н_обучения.члвк_ид = 105590&lt;/font&gt;&lt;/font&gt;&lt;/font&gt;&lt;span style=&quot;background-color: initial;&quot;&gt;)&lt;/span&gt;" style="text;html=1;align=center;verticalAlign=middle;whiteSpace=wrap;rounded=0;" vertex="1" parent="1">
          <mxGeometry x="1670" y="440" width="230" height="50" as="geometry" />
        </mxCell>
        <mxCell id="9OCpa6pSPPRvGiKED115-16" style="edgeStyle=orthogonalEdgeStyle;rounded=0;orthogonalLoop=1;jettySize=auto;html=1;endArrow=none;startFill=0;entryX=0.5;entryY=0;entryDx=0;entryDy=0;exitX=0.5;exitY=1;exitDx=0;exitDy=0;" edge="1" parent="1" source="9OCpa6pSPPRvGiKED115-15" target="9OCpa6pSPPRvGiKED115-14">
          <mxGeometry relative="1" as="geometry">
            <mxPoint x="1780" y="490" as="sourcePoint" />
            <mxPoint x="1780" y="570" as="targetPoint" />
          </mxGeometry>
        </mxCell>
        <mxCell id="9OCpa6pSPPRvGiKED115-20" style="edgeStyle=orthogonalEdgeStyle;rounded=0;orthogonalLoop=1;jettySize=auto;html=1;exitX=0.25;exitY=1;exitDx=0;exitDy=0;endArrow=none;startFill=0;" edge="1" parent="1" source="9OCpa6pSPPRvGiKED115-17" target="9OCpa6pSPPRvGiKED115-11">
          <mxGeometry relative="1" as="geometry" />
        </mxCell>
        <mxCell id="9OCpa6pSPPRvGiKED115-21" style="edgeStyle=orthogonalEdgeStyle;rounded=0;orthogonalLoop=1;jettySize=auto;html=1;exitX=0.75;exitY=1;exitDx=0;exitDy=0;endArrow=none;startFill=0;" edge="1" parent="1" source="9OCpa6pSPPRvGiKED115-17" target="9OCpa6pSPPRvGiKED115-15">
          <mxGeometry relative="1" as="geometry" />
        </mxCell>
        <mxCell id="9OCpa6pSPPRvGiKED115-17" value="&lt;span style=&quot;color: rgb(0, 0, 0); font-style: normal; font-variant-ligatures: normal; font-variant-caps: normal; font-weight: 400; letter-spacing: normal; orphans: 2; text-align: left; text-indent: 0px; text-transform: none; widows: 2; word-spacing: 0px; -webkit-text-stroke-width: 0px; white-space: normal; background-color: rgb(255, 255, 255); text-decoration-thickness: initial; text-decoration-style: initial; text-decoration-color: initial; float: none; display: inline !important;&quot;&gt;&lt;font style=&quot;font-size: 24px;&quot; face=&quot;Helvetica&quot;&gt;⋈&lt;/font&gt;&lt;font style=&quot;font-size: 12px;&quot; face=&quot;Helvetica&quot;&gt;(н_ученики.члвк_ид=н_обучения.члвк_ид)&lt;/font&gt;&lt;/span&gt;" style="text;html=1;align=center;verticalAlign=middle;whiteSpace=wrap;rounded=0;" vertex="1" parent="1">
          <mxGeometry x="1450" y="335" width="320" height="60" as="geometry" />
        </mxCell>
        <mxCell id="9OCpa6pSPPRvGiKED115-22" value="Н_ЛЮДИ" style="text;html=1;align=center;verticalAlign=middle;whiteSpace=wrap;rounded=0;" vertex="1" parent="1">
          <mxGeometry x="1990" y="445" width="110" height="40" as="geometry" />
        </mxCell>
        <mxCell id="9OCpa6pSPPRvGiKED115-24" style="edgeStyle=orthogonalEdgeStyle;rounded=0;orthogonalLoop=1;jettySize=auto;html=1;exitX=0.5;exitY=1;exitDx=0;exitDy=0;entryX=0.5;entryY=0;entryDx=0;entryDy=0;endArrow=none;startFill=0;" edge="1" parent="1" source="9OCpa6pSPPRvGiKED115-23" target="9OCpa6pSPPRvGiKED115-22">
          <mxGeometry relative="1" as="geometry" />
        </mxCell>
        <mxCell id="9OCpa6pSPPRvGiKED115-23" value="&lt;font face=&quot;Helvetica&quot; style=&quot;&quot;&gt;&lt;font style=&quot;font-size: 24px;&quot;&gt;σ&lt;/font&gt;&lt;font style=&quot;font-size: 12px;&quot;&gt;&lt;font style=&quot;&quot;&gt;(н_люди.фамилия &amp;gt; &#39;Афанасьев&#39;)&lt;/font&gt;&lt;/font&gt;&lt;/font&gt;" style="text;html=1;align=center;verticalAlign=middle;whiteSpace=wrap;rounded=0;" vertex="1" parent="1">
          <mxGeometry x="1930" y="340" width="230" height="50" as="geometry" />
        </mxCell>
        <mxCell id="9OCpa6pSPPRvGiKED115-26" style="edgeStyle=orthogonalEdgeStyle;rounded=0;orthogonalLoop=1;jettySize=auto;html=1;exitX=0.25;exitY=1;exitDx=0;exitDy=0;endArrow=none;startFill=0;" edge="1" parent="1" source="9OCpa6pSPPRvGiKED115-25" target="9OCpa6pSPPRvGiKED115-17">
          <mxGeometry relative="1" as="geometry" />
        </mxCell>
        <mxCell id="9OCpa6pSPPRvGiKED115-27" style="edgeStyle=orthogonalEdgeStyle;rounded=0;orthogonalLoop=1;jettySize=auto;html=1;exitX=0.75;exitY=1;exitDx=0;exitDy=0;entryX=0.5;entryY=0;entryDx=0;entryDy=0;endArrow=none;startFill=0;" edge="1" parent="1" source="9OCpa6pSPPRvGiKED115-25" target="9OCpa6pSPPRvGiKED115-23">
          <mxGeometry relative="1" as="geometry" />
        </mxCell>
        <mxCell id="9OCpa6pSPPRvGiKED115-25" value="&lt;span style=&quot;color: rgb(0, 0, 0); font-style: normal; font-variant-ligatures: normal; font-variant-caps: normal; font-weight: 400; letter-spacing: normal; orphans: 2; text-align: left; text-indent: 0px; text-transform: none; widows: 2; word-spacing: 0px; -webkit-text-stroke-width: 0px; white-space: normal; background-color: rgb(255, 255, 255); text-decoration-thickness: initial; text-decoration-style: initial; text-decoration-color: initial; float: none; display: inline !important;&quot;&gt;&lt;font style=&quot;font-size: 24px;&quot; face=&quot;Helvetica&quot;&gt;⋈&lt;/font&gt;&lt;font style=&quot;font-size: 12px;&quot; face=&quot;Helvetica&quot;&gt;(н_обучения.члвк_ид=н_люди.ид)&lt;/font&gt;&lt;/span&gt;" style="text;html=1;align=center;verticalAlign=middle;whiteSpace=wrap;rounded=0;" vertex="1" parent="1">
          <mxGeometry x="1670" y="230" width="320" height="60" as="geometry" />
        </mxCell>
      </root>
    </mxGraphModel>
  </diagram>
  <diagram id="Bz84TYsq3eT7sRz_icdk" name="Страница — 2">
    <mxGraphModel dx="2501" dy="788" grid="1" gridSize="10" guides="1" tooltips="1" connect="1" arrows="1" fold="1" page="1" pageScale="1" pageWidth="827" pageHeight="1169" math="0" shadow="0">
      <root>
        <mxCell id="0" />
        <mxCell id="1" parent="0" />
        <mxCell id="AfHIorYxNq62lIFqsqqZ-1" value="&lt;font style=&quot;font-size: 24px;&quot;&gt;Result&lt;/font&gt;" style="text;html=1;align=center;verticalAlign=middle;whiteSpace=wrap;rounded=0;shadow=1;" vertex="1" parent="1">
          <mxGeometry x="164" y="50" width="60" height="30" as="geometry" />
        </mxCell>
        <mxCell id="AfHIorYxNq62lIFqsqqZ-2" value="&lt;font style=&quot;font-size: 24px;&quot;&gt;π&lt;/font&gt;&lt;font style=&quot;font-size: 12px;&quot;&gt;(н_люди.отчество, н_обучения.члвк_ид, н_ученики.начало&lt;/font&gt;&lt;span style=&quot;background-color: initial;&quot;&gt;)&lt;/span&gt;" style="text;html=1;align=center;verticalAlign=middle;whiteSpace=wrap;rounded=0;" vertex="1" parent="1">
          <mxGeometry x="84" y="100" width="220" height="60" as="geometry" />
        </mxCell>
        <mxCell id="AfHIorYxNq62lIFqsqqZ-3" value="&lt;font face=&quot;Helvetica&quot; style=&quot;&quot;&gt;&lt;font style=&quot;font-size: 24px;&quot;&gt;σ&lt;/font&gt;&lt;font style=&quot;font-size: 12px;&quot;&gt;&lt;font style=&quot;&quot;&gt;(н_люди.отчество = &#39;Сергеевич&#39;&lt;/font&gt;&lt;/font&gt;&lt;/font&gt;&lt;span style=&quot;background-color: initial;&quot;&gt;)&lt;/span&gt;" style="text;html=1;align=center;verticalAlign=middle;whiteSpace=wrap;rounded=0;" vertex="1" parent="1">
          <mxGeometry x="79" y="180" width="230" height="40" as="geometry" />
        </mxCell>
        <mxCell id="AfHIorYxNq62lIFqsqqZ-4" value="&lt;font face=&quot;Helvetica&quot; style=&quot;&quot;&gt;&lt;font style=&quot;font-size: 24px;&quot;&gt;σ&lt;/font&gt;&lt;font style=&quot;font-size: 12px;&quot;&gt;&lt;font style=&quot;&quot;&gt;(н_обучения.члвк_ид = 163276&lt;/font&gt;&lt;/font&gt;&lt;/font&gt;&lt;span style=&quot;background-color: initial;&quot;&gt;)&lt;/span&gt;" style="text;html=1;align=center;verticalAlign=middle;whiteSpace=wrap;rounded=0;" vertex="1" parent="1">
          <mxGeometry x="79" y="250" width="230" height="40" as="geometry" />
        </mxCell>
        <mxCell id="AfHIorYxNq62lIFqsqqZ-5" value="&lt;span style=&quot;color: rgb(0, 0, 0); font-style: normal; font-variant-ligatures: normal; font-variant-caps: normal; font-weight: 400; letter-spacing: normal; orphans: 2; text-align: left; text-indent: 0px; text-transform: none; widows: 2; word-spacing: 0px; -webkit-text-stroke-width: 0px; white-space: normal; background-color: rgb(255, 255, 255); text-decoration-thickness: initial; text-decoration-style: initial; text-decoration-color: initial; float: none; display: inline !important;&quot;&gt;&lt;font style=&quot;font-size: 24px;&quot; face=&quot;Helvetica&quot;&gt;⋈&lt;/font&gt;&lt;font style=&quot;font-size: 12px;&quot; face=&quot;Helvetica&quot;&gt;(н_люди.ид = н_обучения.члвк_ид )&lt;/font&gt;&lt;/span&gt;" style="text;html=1;align=center;verticalAlign=middle;whiteSpace=wrap;rounded=0;" vertex="1" parent="1">
          <mxGeometry x="-60" y="390" width="320" height="40" as="geometry" />
        </mxCell>
        <mxCell id="AfHIorYxNq62lIFqsqqZ-6" value="&lt;font style=&quot;font-size: 18px;&quot;&gt;н_ученики&lt;/font&gt;" style="text;html=1;align=center;verticalAlign=middle;whiteSpace=wrap;rounded=0;" vertex="1" parent="1">
          <mxGeometry x="260" y="390" width="110" height="40" as="geometry" />
        </mxCell>
        <mxCell id="AfHIorYxNq62lIFqsqqZ-7" value="&lt;font style=&quot;font-size: 18px;&quot;&gt;н_люди&lt;/font&gt;" style="text;html=1;align=center;verticalAlign=middle;whiteSpace=wrap;rounded=0;" vertex="1" parent="1">
          <mxGeometry x="-16" y="460" width="160" height="40" as="geometry" />
        </mxCell>
        <mxCell id="AfHIorYxNq62lIFqsqqZ-11" value="" style="endArrow=none;html=1;rounded=0;exitX=0.5;exitY=0;exitDx=0;exitDy=0;entryX=0.5;entryY=1;entryDx=0;entryDy=0;" edge="1" parent="1" source="AfHIorYxNq62lIFqsqqZ-4" target="AfHIorYxNq62lIFqsqqZ-3">
          <mxGeometry width="50" height="50" relative="1" as="geometry">
            <mxPoint x="104" y="420" as="sourcePoint" />
            <mxPoint x="134" y="390" as="targetPoint" />
          </mxGeometry>
        </mxCell>
        <mxCell id="AfHIorYxNq62lIFqsqqZ-12" value="" style="endArrow=none;html=1;rounded=0;exitX=0.5;exitY=1;exitDx=0;exitDy=0;entryX=0.5;entryY=0;entryDx=0;entryDy=0;" edge="1" parent="1" source="AfHIorYxNq62lIFqsqqZ-2" target="AfHIorYxNq62lIFqsqqZ-3">
          <mxGeometry width="50" height="50" relative="1" as="geometry">
            <mxPoint x="114" y="430" as="sourcePoint" />
            <mxPoint x="144" y="400" as="targetPoint" />
          </mxGeometry>
        </mxCell>
        <mxCell id="AfHIorYxNq62lIFqsqqZ-13" value="" style="endArrow=none;html=1;rounded=0;exitX=0.5;exitY=1;exitDx=0;exitDy=0;entryX=0.5;entryY=0;entryDx=0;entryDy=0;" edge="1" parent="1" source="AfHIorYxNq62lIFqsqqZ-1" target="AfHIorYxNq62lIFqsqqZ-2">
          <mxGeometry width="50" height="50" relative="1" as="geometry">
            <mxPoint x="124" y="440" as="sourcePoint" />
            <mxPoint x="154" y="410" as="targetPoint" />
          </mxGeometry>
        </mxCell>
        <mxCell id="AfHIorYxNq62lIFqsqqZ-14" value="&lt;font style=&quot;font-size: 18px;&quot;&gt;н_обучения&lt;/font&gt;" style="text;html=1;align=center;verticalAlign=middle;whiteSpace=wrap;rounded=0;" vertex="1" parent="1">
          <mxGeometry x="144" y="460" width="160" height="40" as="geometry" />
        </mxCell>
        <mxCell id="AfHIorYxNq62lIFqsqqZ-15" value="&lt;span style=&quot;color: rgb(0, 0, 0); font-style: normal; font-variant-ligatures: normal; font-variant-caps: normal; font-weight: 400; letter-spacing: normal; orphans: 2; text-align: left; text-indent: 0px; text-transform: none; widows: 2; word-spacing: 0px; -webkit-text-stroke-width: 0px; white-space: normal; background-color: rgb(255, 255, 255); text-decoration-thickness: initial; text-decoration-style: initial; text-decoration-color: initial; float: none; display: inline !important;&quot;&gt;&lt;font style=&quot;font-size: 24px;&quot; face=&quot;Helvetica&quot;&gt;⋈&lt;/font&gt;&lt;font style=&quot;font-size: 12px;&quot; face=&quot;Helvetica&quot;&gt;(н_обучения.вид_обуч_ид = н_ученики.ид )&lt;/font&gt;&lt;/span&gt;" style="text;html=1;align=center;verticalAlign=middle;whiteSpace=wrap;rounded=0;" vertex="1" parent="1">
          <mxGeometry x="34" y="320" width="320" height="40" as="geometry" />
        </mxCell>
        <mxCell id="AfHIorYxNq62lIFqsqqZ-16" value="" style="endArrow=none;html=1;rounded=0;exitX=0.25;exitY=0;exitDx=0;exitDy=0;entryX=0.75;entryY=1;entryDx=0;entryDy=0;" edge="1" parent="1" source="AfHIorYxNq62lIFqsqqZ-6" target="AfHIorYxNq62lIFqsqqZ-15">
          <mxGeometry width="50" height="50" relative="1" as="geometry">
            <mxPoint x="390" y="430" as="sourcePoint" />
            <mxPoint x="440" y="380" as="targetPoint" />
          </mxGeometry>
        </mxCell>
        <mxCell id="AfHIorYxNq62lIFqsqqZ-17" value="" style="endArrow=none;html=1;rounded=0;exitX=0.5;exitY=0;exitDx=0;exitDy=0;entryX=0.25;entryY=1;entryDx=0;entryDy=0;" edge="1" parent="1" source="AfHIorYxNq62lIFqsqqZ-5" target="AfHIorYxNq62lIFqsqqZ-15">
          <mxGeometry width="50" height="50" relative="1" as="geometry">
            <mxPoint x="390" y="430" as="sourcePoint" />
            <mxPoint x="440" y="380" as="targetPoint" />
          </mxGeometry>
        </mxCell>
        <mxCell id="AfHIorYxNq62lIFqsqqZ-18" value="" style="endArrow=none;html=1;rounded=0;exitX=0.5;exitY=0;exitDx=0;exitDy=0;entryX=0.5;entryY=1;entryDx=0;entryDy=0;" edge="1" parent="1" source="AfHIorYxNq62lIFqsqqZ-7" target="AfHIorYxNq62lIFqsqqZ-5">
          <mxGeometry width="50" height="50" relative="1" as="geometry">
            <mxPoint x="29" y="470" as="sourcePoint" />
            <mxPoint x="80" y="440" as="targetPoint" />
          </mxGeometry>
        </mxCell>
        <mxCell id="AfHIorYxNq62lIFqsqqZ-19" value="" style="endArrow=none;html=1;rounded=0;exitX=0.75;exitY=1;exitDx=0;exitDy=0;entryX=0.5;entryY=0;entryDx=0;entryDy=0;" edge="1" parent="1" source="AfHIorYxNq62lIFqsqqZ-5" target="AfHIorYxNq62lIFqsqqZ-14">
          <mxGeometry width="50" height="50" relative="1" as="geometry">
            <mxPoint x="390" y="430" as="sourcePoint" />
            <mxPoint x="440" y="380" as="targetPoint" />
          </mxGeometry>
        </mxCell>
        <mxCell id="AfHIorYxNq62lIFqsqqZ-20" value="&lt;font style=&quot;font-size: 24px;&quot;&gt;Result&lt;/font&gt;" style="text;html=1;align=center;verticalAlign=middle;whiteSpace=wrap;rounded=0;shadow=1;" vertex="1" parent="1">
          <mxGeometry x="654" y="50" width="60" height="30" as="geometry" />
        </mxCell>
        <mxCell id="AfHIorYxNq62lIFqsqqZ-21" value="&lt;font style=&quot;font-size: 24px;&quot;&gt;π&lt;/font&gt;&lt;font style=&quot;font-size: 12px;&quot;&gt;(н_люди.отчество, н_обучения.члвк_ид, н_ученики.начало&lt;/font&gt;&lt;span style=&quot;background-color: initial;&quot;&gt;)&lt;/span&gt;" style="text;html=1;align=center;verticalAlign=middle;whiteSpace=wrap;rounded=0;" vertex="1" parent="1">
          <mxGeometry x="574" y="100" width="220" height="60" as="geometry" />
        </mxCell>
        <mxCell id="AfHIorYxNq62lIFqsqqZ-22" value="&lt;font face=&quot;Helvetica&quot; style=&quot;&quot;&gt;&lt;font style=&quot;font-size: 24px;&quot;&gt;σ&lt;/font&gt;&lt;font style=&quot;font-size: 12px;&quot;&gt;&lt;font style=&quot;&quot;&gt;(н_люди.отчество = &#39;Сергеевич&#39;&lt;/font&gt;&lt;/font&gt;&lt;/font&gt;&lt;span style=&quot;background-color: initial;&quot;&gt;)&lt;/span&gt;" style="text;html=1;align=center;verticalAlign=middle;whiteSpace=wrap;rounded=0;" vertex="1" parent="1">
          <mxGeometry x="405" y="310" width="230" height="50" as="geometry" />
        </mxCell>
        <mxCell id="AfHIorYxNq62lIFqsqqZ-23" value="&lt;font face=&quot;Helvetica&quot; style=&quot;&quot;&gt;&lt;font style=&quot;font-size: 24px;&quot;&gt;σ&lt;/font&gt;&lt;font style=&quot;font-size: 12px;&quot;&gt;&lt;font style=&quot;&quot;&gt;(н_обучения.члвк_ид = 163276&lt;/font&gt;&lt;/font&gt;&lt;/font&gt;&lt;span style=&quot;background-color: initial;&quot;&gt;)&lt;/span&gt;" style="text;html=1;align=center;verticalAlign=middle;whiteSpace=wrap;rounded=0;" vertex="1" parent="1">
          <mxGeometry x="635" y="310" width="230" height="50" as="geometry" />
        </mxCell>
        <mxCell id="AfHIorYxNq62lIFqsqqZ-24" value="&lt;span style=&quot;color: rgb(0, 0, 0); font-style: normal; font-variant-ligatures: normal; font-variant-caps: normal; font-weight: 400; letter-spacing: normal; orphans: 2; text-align: left; text-indent: 0px; text-transform: none; widows: 2; word-spacing: 0px; -webkit-text-stroke-width: 0px; white-space: normal; background-color: rgb(255, 255, 255); text-decoration-thickness: initial; text-decoration-style: initial; text-decoration-color: initial; float: none; display: inline !important;&quot;&gt;&lt;font style=&quot;font-size: 24px;&quot; face=&quot;Helvetica&quot;&gt;⋈&lt;/font&gt;&lt;font style=&quot;font-size: 12px;&quot; face=&quot;Helvetica&quot;&gt;(н_люди.ид = н_обучения.члвк_ид )&lt;/font&gt;&lt;/span&gt;" style="text;html=1;align=center;verticalAlign=middle;whiteSpace=wrap;rounded=0;" vertex="1" parent="1">
          <mxGeometry x="414" y="245" width="320" height="40" as="geometry" />
        </mxCell>
        <mxCell id="AfHIorYxNq62lIFqsqqZ-25" value="&lt;font style=&quot;font-size: 18px;&quot;&gt;н_ученики&lt;/font&gt;" style="text;html=1;align=center;verticalAlign=middle;whiteSpace=wrap;rounded=0;" vertex="1" parent="1">
          <mxGeometry x="770" y="245" width="110" height="40" as="geometry" />
        </mxCell>
        <mxCell id="AfHIorYxNq62lIFqsqqZ-26" value="&lt;font style=&quot;font-size: 18px;&quot;&gt;н_люди&lt;/font&gt;" style="text;html=1;align=center;verticalAlign=middle;whiteSpace=wrap;rounded=0;" vertex="1" parent="1">
          <mxGeometry x="440" y="400" width="160" height="40" as="geometry" />
        </mxCell>
        <mxCell id="AfHIorYxNq62lIFqsqqZ-29" value="" style="endArrow=none;html=1;rounded=0;exitX=0.5;exitY=1;exitDx=0;exitDy=0;entryX=0.5;entryY=0;entryDx=0;entryDy=0;" edge="1" parent="1" source="AfHIorYxNq62lIFqsqqZ-20" target="AfHIorYxNq62lIFqsqqZ-21">
          <mxGeometry width="50" height="50" relative="1" as="geometry">
            <mxPoint x="614" y="440" as="sourcePoint" />
            <mxPoint x="644" y="410" as="targetPoint" />
          </mxGeometry>
        </mxCell>
        <mxCell id="AfHIorYxNq62lIFqsqqZ-30" value="&lt;font style=&quot;font-size: 18px;&quot;&gt;н_обучения&lt;/font&gt;" style="text;html=1;align=center;verticalAlign=middle;whiteSpace=wrap;rounded=0;" vertex="1" parent="1">
          <mxGeometry x="670" y="400" width="160" height="40" as="geometry" />
        </mxCell>
        <mxCell id="AfHIorYxNq62lIFqsqqZ-31" value="&lt;span style=&quot;color: rgb(0, 0, 0); font-style: normal; font-variant-ligatures: normal; font-variant-caps: normal; font-weight: 400; letter-spacing: normal; orphans: 2; text-align: left; text-indent: 0px; text-transform: none; widows: 2; word-spacing: 0px; -webkit-text-stroke-width: 0px; white-space: normal; background-color: rgb(255, 255, 255); text-decoration-thickness: initial; text-decoration-style: initial; text-decoration-color: initial; float: none; display: inline !important;&quot;&gt;&lt;font style=&quot;font-size: 24px;&quot; face=&quot;Helvetica&quot;&gt;⋈&lt;/font&gt;&lt;font style=&quot;font-size: 12px;&quot; face=&quot;Helvetica&quot;&gt;(н_обучения.вид_обуч_ид = н_ученики.ид )&lt;/font&gt;&lt;/span&gt;" style="text;html=1;align=center;verticalAlign=middle;whiteSpace=wrap;rounded=0;" vertex="1" parent="1">
          <mxGeometry x="524" y="190" width="320" height="40" as="geometry" />
        </mxCell>
        <mxCell id="AfHIorYxNq62lIFqsqqZ-32" value="" style="endArrow=none;html=1;rounded=0;exitX=0.25;exitY=0;exitDx=0;exitDy=0;entryX=0.75;entryY=1;entryDx=0;entryDy=0;" edge="1" parent="1" source="AfHIorYxNq62lIFqsqqZ-25" target="AfHIorYxNq62lIFqsqqZ-31">
          <mxGeometry width="50" height="50" relative="1" as="geometry">
            <mxPoint x="880" y="430" as="sourcePoint" />
            <mxPoint x="930" y="380" as="targetPoint" />
          </mxGeometry>
        </mxCell>
        <mxCell id="AfHIorYxNq62lIFqsqqZ-33" value="" style="endArrow=none;html=1;rounded=0;exitX=0.5;exitY=0;exitDx=0;exitDy=0;entryX=0.25;entryY=1;entryDx=0;entryDy=0;" edge="1" parent="1" source="AfHIorYxNq62lIFqsqqZ-24" target="AfHIorYxNq62lIFqsqqZ-31">
          <mxGeometry width="50" height="50" relative="1" as="geometry">
            <mxPoint x="880" y="430" as="sourcePoint" />
            <mxPoint x="930" y="380" as="targetPoint" />
          </mxGeometry>
        </mxCell>
        <mxCell id="AfHIorYxNq62lIFqsqqZ-36" value="" style="endArrow=none;html=1;rounded=0;exitX=0.5;exitY=0;exitDx=0;exitDy=0;entryX=0.5;entryY=1;entryDx=0;entryDy=0;" edge="1" parent="1" source="AfHIorYxNq62lIFqsqqZ-15" target="AfHIorYxNq62lIFqsqqZ-4">
          <mxGeometry width="50" height="50" relative="1" as="geometry">
            <mxPoint x="390" y="430" as="sourcePoint" />
            <mxPoint x="440" y="380" as="targetPoint" />
          </mxGeometry>
        </mxCell>
        <mxCell id="AfHIorYxNq62lIFqsqqZ-37" value="" style="endArrow=none;html=1;rounded=0;exitX=0.5;exitY=0;exitDx=0;exitDy=0;entryX=0.5;entryY=1;entryDx=0;entryDy=0;" edge="1" parent="1" source="AfHIorYxNq62lIFqsqqZ-30" target="AfHIorYxNq62lIFqsqqZ-23">
          <mxGeometry width="50" height="50" relative="1" as="geometry">
            <mxPoint x="770" y="430" as="sourcePoint" />
            <mxPoint x="820" y="380" as="targetPoint" />
          </mxGeometry>
        </mxCell>
        <mxCell id="AfHIorYxNq62lIFqsqqZ-38" value="" style="endArrow=none;html=1;rounded=0;exitX=0.5;exitY=0;exitDx=0;exitDy=0;entryX=0.5;entryY=1;entryDx=0;entryDy=0;" edge="1" parent="1" source="AfHIorYxNq62lIFqsqqZ-26" target="AfHIorYxNq62lIFqsqqZ-22">
          <mxGeometry width="50" height="50" relative="1" as="geometry">
            <mxPoint x="770" y="430" as="sourcePoint" />
            <mxPoint x="820" y="380" as="targetPoint" />
          </mxGeometry>
        </mxCell>
        <mxCell id="AfHIorYxNq62lIFqsqqZ-39" value="" style="endArrow=none;html=1;rounded=0;exitX=0.5;exitY=0;exitDx=0;exitDy=0;entryX=0.5;entryY=1;entryDx=0;entryDy=0;" edge="1" parent="1" source="AfHIorYxNq62lIFqsqqZ-22" target="AfHIorYxNq62lIFqsqqZ-24">
          <mxGeometry width="50" height="50" relative="1" as="geometry">
            <mxPoint x="770" y="430" as="sourcePoint" />
            <mxPoint x="820" y="380" as="targetPoint" />
          </mxGeometry>
        </mxCell>
        <mxCell id="AfHIorYxNq62lIFqsqqZ-40" value="" style="endArrow=none;html=1;rounded=0;exitX=0.75;exitY=1;exitDx=0;exitDy=0;entryX=0.5;entryY=0;entryDx=0;entryDy=0;" edge="1" parent="1" source="AfHIorYxNq62lIFqsqqZ-24" target="AfHIorYxNq62lIFqsqqZ-23">
          <mxGeometry width="50" height="50" relative="1" as="geometry">
            <mxPoint x="640" y="300" as="sourcePoint" />
            <mxPoint x="820" y="380" as="targetPoint" />
          </mxGeometry>
        </mxCell>
        <mxCell id="AfHIorYxNq62lIFqsqqZ-41" value="" style="endArrow=none;html=1;rounded=0;exitX=0.5;exitY=0;exitDx=0;exitDy=0;entryX=0.5;entryY=1;entryDx=0;entryDy=0;" edge="1" parent="1" source="AfHIorYxNq62lIFqsqqZ-31" target="AfHIorYxNq62lIFqsqqZ-21">
          <mxGeometry width="50" height="50" relative="1" as="geometry">
            <mxPoint x="770" y="430" as="sourcePoint" />
            <mxPoint x="820" y="380" as="targetPoint" />
          </mxGeometry>
        </mxCell>
      </root>
    </mxGraphModel>
  </diagram>
</mxfile>
